# xmcd
#
# Track frame offsets:
#	150
#	21124
#	33237
#	52313
#	66257
#	83769
#	93142
#	110156
#	130048
#	151424
#	171918
#
# Disc length: 2600 seconds
#
# Revision: 0
# Processed by: cddbd v1.5.2PL0 Copyright (c) Steve Scherf et al.
# Submitted via: EZCDAudioConverter 2.1.7.1
#
DISCID=8d0a260b
DTITLE=Fumaça Preta - Fumaça Preta (2014)
DYEAR=1900
DGENRE=
TTITLE0=Pupilas Dilatadas
TTITLE1=Toda Pessoa
TTITLE2=Eu Era Um Cão
TTITLE3=Você Enlouqueceu
TTITLE4=Recitando À Toa
TTITLE5=Espelhos Fundidos
TTITLE6=Fumaça Preta
TTITLE7=Amor-Tece-Dor
TTITLE8=Vou Me Libertar
TTITLE9=Tire Sua Máscara
TTITLE10=Perdidos
EXTD=
EXTT0=
EXTT1=
EXTT2=
EXTT3=
EXTT4=
EXTT5=
EXTT6=
EXTT7=
EXTT8=
EXTT9=
EXTT10=
PLAYORDER=
